inDegrees=yes
name=ik_S53_A13_T02
DataType=double
version=3
OpenSimVersion=4.3-2021-08-27-4bc7ad9
endheader
time	pelvis_tilt	pelvis_list	pelvis_rotation	pelvis_tx	pelvis_ty	pelvis_tz	hip_flexion_r	hip_adduction_r	hip_rotation_r	knee_angle_r	knee_angle_r_beta	ankle_angle_r	subtalar_angle_r	mtp_angle_r	hip_flexion_l	hip_adduction_l	hip_rotation_l	knee_angle_l	knee_angle_l_beta	ankle_angle_l	subtalar_angle_l	mtp_angle_l	lumbar_extension	lumbar_bending	lumbar_rotation	arm_flex_r	arm_add_r	arm_rot_r	elbow_flex_r	pro_sup_r	wrist_flex_r	wrist_dev_r	arm_flex_l	arm_add_l	arm_rot_l	elbow_flex_l	pro_sup_l	wrist_flex_l	wrist_dev_l
7.783333333333311	-1.778857256844544	-2.88100376945516	37.12657703724619	0	0.9399999999999999	0	31.63587546585778	-9.516689565716327	-8.813124425466373	36.98500657668757	0.6455101386349547	0	0	0	31.63587546585778	-9.516689565716327	-8.813124425466373	36.98500657668757	0.6455101386349547	0	0	0	-1.751132986328507	-0.1079827792700059	10.79898565744067	44.44619203077175	-11.89833083255749	3.953906635265264	38.93423922181471	177.910108545385	0	0	97.89999888013135	-48.26157510479688	62.46909855423795	48.08226352759184	71.6872167046691	0	0
7.799999999999978	-1.703751092421876	-2.907268866816012	37.34420238811072	0	0.9399999999999999	0	31.6445869815191	-9.517751253235582	-8.814800037381016	36.99327704381644	0.6456544855170315	0	0	0	31.6445869815191	-9.517751253235582	-8.814800037381016	36.99327704381644	0.6456544855170315	0	0	0	-1.709869679137253	-0.1687190701436882	10.76552458363989	46.47850507696538	-11.05656637179989	3.820076739170094	36.69404184088894	178.3395076538682	0	0	97.69226910532622	-48.09243710977472	62.36338693260266	48.39575838030552	71.79154537765882	0	0
7.816666666666644	-1.634562451782523	-2.88621580001444	37.56337158583852	0	0.9399999999999999	0	31.64903829507873	-9.518293987182687	-8.815656632914296	36.99749738603096	0.6457281443842358	0	0	0	31.64903829507873	-9.518293987182687	-8.815656632914296	36.99749738603096	0.6457281443842358	0	0	0	-1.644853535605647	-0.1896967962888748	10.71523894298549	48.44986817330154	-10.07102544226951	3.445082533766924	37.7231872783968	177.8934297587323	0	0	97.51849079050676	-47.91242581763955	62.37709372292323	48.64359556906663	71.76715285772802	0	0
7.833333333333311	-1.559502742475789	-2.923389586521385	37.79410230688768	0	0.9399999999999999	0	31.65492523384678	-9.519007023218677	-8.81678487135785	37.003107833715	0.6458260651688331	0	0	0	31.65492523384678	-9.519007023218677	-8.81678487135785	37.003107833715	0.6458260651688331	0	0	0	-1.61092408172669	-0.2579577915417734	10.65692971879934	50.65791895076479	-9.172902085198265	3.172337340681878	35.30302166951851	178.4224934001987	0	0	97.40665346504473	-47.75022987838996	62.31636247701744	48.79398217353808	71.93659689665863	0	0
7.849999999999977	-1.481991976945988	-2.918999551447014	38.02282187730793	0	0.9399999999999999	0	31.80285054642621	-9.531210480118206	-8.839308499814509	37.18404154802941	0.6489839542114825	0	0	0	31.80285054642621	-9.531210480118206	-8.839308499814509	37.18404154802941	0.6489839542114825	0	0	0	-1.559164083352453	-0.3111883048897012	10.56966332995127	50.47927537624299	-9.027042735710628	2.905438056488466	38.35889905672835	177.5565571521204	0	0	97.21194475806138	-47.63317187466615	62.26982612978743	49.0947874743033	72.25990824421544	0	0
7.866666666666644	-1.412370798455132	-2.948084519017575	38.36496732907499	0	0.9399999999999999	0	31.81497584861365	-9.532671531925319	-8.841628704846777	37.19549442317319	0.6491838445915612	0	0	0	31.81497584861365	-9.532671531925319	-8.841628704846777	37.19549442317319	0.6491838445915612	0	0	0	-1.540415180844616	-0.3448504249535064	10.31382401637165	55.09253658553598	-7.044409585491198	2.919775910436868	36.38113118047445	177.6312789415174	0	0	97.21882982902541	-47.54658605816519	62.30219067818138	49.17480567344223	72.47494277445192	0	0
7.883333333333311	-1.372025661634363	-2.936428562787498	38.53952542234761	0	0.9399999999999999	0	31.93301304300711	-9.542316027731225	-8.859516719439062	37.33924380784876	0.6516927446518658	0	0	0	31.93301304300711	-9.542316027731225	-8.859516719439062	37.33924380784876	0.6516927446518658	0	0	0	-1.513467835822367	-0.3635664821987852	10.2044389726096	54.96246012532944	-6.855189679803463	2.782206923390335	39.36048749897671	177.5546079584594	0	0	97.09764822428623	-47.43591227170117	62.22415422838922	49.18277293125073	72.92754311560518	0	0
7.899999999999977	-1.368278184082693	-2.944583544597462	38.73663203292169	0	0.9399999999999999	0	31.94098496082835	-9.543263177168779	-8.861030727291681	37.3467833736529	0.6518243348993187	0	0	0	31.94098496082835	-9.543263177168779	-8.861030727291681	37.3467833736529	0.6518243348993187	0	0	0	-1.524765512393589	-0.3563242855949146	10.01061968220515	57.31037370738567	-5.786452228574296	2.978021229073422	39.55151732282152	177.6646041091301	0	0	97.10608532452758	-47.42644375286624	62.34339626969031	49.20628866914704	72.87126971250845	0	0
7.916666666666644	-1.303213060246673	-2.945500623648547	38.9990525024968	0	0.9399999999999999	0	31.946922194033	-9.543966837429082	-8.862156738845318	37.35240583182768	0.6519224653065244	0	0	0	31.946922194033	-9.543966837429082	-8.862156738845318	37.35240583182768	0.6519224653065244	0	0	0	-1.481780421443584	-0.3854473439058207	9.865870917856048	59.58092923792871	-4.788156772377517	3.195373367340866	39.6530668100668	177.6702946107261	0	0	97.11041354604963	-47.26161122368623	62.52309294378838	49.21095799690386	72.70818546170835	0	0
7.93333333333331	-1.240667516115059	-2.937235936976571	39.12511328403608	0	0.9399999999999999	0	31.99698926986538	-9.548114445547476	-8.869792208072623	37.41321573411454	0.652983798319246	0	0	0	31.99698926986538	-9.548114445547476	-8.869792208072623	37.41321573411454	0.652983798319246	0	0	0	-1.432128162358716	-0.4185559946669176	9.805645010864326	61.80457772119181	-3.794590405461714	3.4708685584434	39.87040670540009	178.3061965689047	0	0	97.11115715922244	-47.14315666840665	62.50078549025248	49.14681368215273	72.81994663374886	0	0
7.949999999999977	-1.187203686727187	-2.936597068409263	39.21821112841911	0	0.9399999999999999	0	32.03892311722259	-9.551731463504293	-8.876338026304374	37.46293830571703	0.6538516209062682	0	0	0	32.03892311722259	-9.551731463504293	-8.876338026304374	37.46293830571703	0.6538516209062682	0	0	0	-1.39475056059409	-0.4516880431754038	9.759447253339578	64.11232329295198	-2.81647911410968	3.780534223701974	39.92666838355936	178.9907475555211	0	0	97.30432658534176	-47.08212194579659	62.68402406539516	49.08187459723764	72.91675992866963	0	0
7.966666666666644	-1.145467129578953	-2.940992326716426	39.34070237940601	0	0.9399999999999999	0	32.04545455667983	-9.552496991633326	-8.877569603560881	37.46912687434767	0.6539596318048585	0	0	0	32.04545455667983	-9.552496991633326	-8.877569603560881	37.46912687434767	0.6539596318048585	0	0	0	-1.36920130880378	-0.4767752318659781	9.670767150937564	64.00590417867076	-2.661522511707337	3.749703873661442	42.31187226879593	179.2078802907816	0	0	97.53814633330332	-47.02678212104777	62.94489754486747	48.98679162119993	73.06881244041519	0	0
7.98333333333331	-1.086885016907863	-2.945422254407602	39.54497889997573	0	0.9399999999999999	0	32.05175361220118	-9.553235090700364	-8.878757373667231	37.47509153185174	0.6540637347170583	0	0	0	32.05175361220118	-9.553235090700364	-8.878757373667231	37.47509153185174	0.6540637347170583	0	0	0	-1.332765824486368	-0.5063961909914992	9.542813309309038	66.27323254617136	-1.773618905730298	3.950806344351177	42.10097872385561	179.4129954431392	0	0	97.63609125064335	-46.95528706532185	63.0474964524977	48.92797552877294	73.41270438745205	0	0
7.999999999999977	-1.031537984766048	-2.931706634398976	39.58199963485963	0	0.9399999999999999	0	32.05939995708346	-9.554099096410138	-8.880165807908568	37.48258272321385	0.6541944806712241	0	0	0	32.05939995708346	-9.554099096410138	-8.880165807908568	37.48258272321385	0.6541944806712241	0	0	0	-1.28174679798244	-0.5337983309015498	9.575313255935162	68.55117549190362	-0.9759803338056986	4.112706954401574	41.83762049888243	179.6663928125488	0	0	97.82376095169543	-46.83665656494831	63.28624707138974	48.82607358166899	73.51826999382762	0	0
8.016666666666644	-0.9662205835901126	-2.945752820132397	39.72208627203506	0	0.9399999999999999	0	32.06702469142002	-9.554987945315862	-8.881599408684098	37.48982122013721	0.6543208162754321	0	0	0	32.06702469142002	-9.554987945315862	-8.881599408684098	37.48982122013721	0.6543208162754321	0	0	0	-1.242009622797935	-0.582554429854264	9.521541951316555	70.86850881183284	-0.2361689402991902	4.151938732040754	39.34357495520753	179.6389013503799	0	0	97.88128718155775	-46.7354569864173	63.45173202105395	48.82471110284862	73.49653068082404	0	0
8.033333333333312	-0.9807667694488469	-2.945430579868566	39.72353514427795	0	0.9399999999999999	0	32.06986180896676	-9.555319740803531	-8.882134072257928	37.49250362989357	0.6543676331575683	0	0	0	32.06986180896676	-9.555319740803531	-8.882134072257928	37.49250362989357	0.6543676331575683	0	0	0	-1.253258864920849	-0.5731007733376975	9.533134205363803	70.87901402091758	-0.269573253551939	4.180084066064294	39.35140401329257	179.6301384168348	0	0	97.93943293016864	-46.73178371884035	63.4639723747143	48.83272848851576	73.42042268358786	0	0
8.049999999999979	-0.8834547777677682	-2.929723597013324	39.7856028631051	0	0.9399999999999999	0	32.07705867666166	-9.556159651214278	-8.883488620742352	37.4993187240144	0.6544865789888101	0	0	0	32.07705867666166	-9.556159651214278	-8.883488620742352	37.4993187240144	0.6544865789888101	0	0	0	-1.167821798083382	-0.6244589643429408	9.544606411976734	70.72345842416036	-0.3037050093977375	4.185817211601776	41.54998368498636	179.7713608805317	0	0	98.29106546519598	-46.58526459935655	64.00832106494651	48.8040936713668	73.11306641639791	0	0
8.066666666666647	-0.7774479576978899	-2.9235597801222	39.84619976317837	0	0.9399999999999999	0	32.0971594302281	-9.558191910972921	-8.886935914076618	37.52111606544665	0.6548670143649842	0	0	0	32.0971594302281	-9.558191910972921	-8.886935914076618	37.52111606544665	0.6548670143649842	0	0	0	-1.08991649436317	-0.689858398129423	9.579210222548292	75.31671929733567	1.204334214538752	4.206087048211488	36.52597169217386	179.755442984627	0	0	98.58624393806757	-46.44717115279304	64.46394694077955	48.80551532924891	73.05205621069375	0	0
